<svg xmlns="http://www.w3.org/2000/svg" viewBox="0 0 656.15 96.48"><defs><style>.cls-1{fill:#1D1D35;}</style></defs><g id="Layer_2" data-name="Layer 2"><g id="object"><path class="cls-1" d="M2.16,94.61c0-2.82,0-6.06,0-6.8v-16h.79c.52,0,1.84-.76,1.84-1.36V64.19H19c.52,0,1.84-.76,1.84-1.36V57.67h8.64c2.39,0,2.3-.55,2.3,1.72v5.46c0,.18.13.19.28.19h2.45c.51,0,1.83-.76,1.83-1.36v-6h4c.51,0,1.83-.76,1.83-1.36V41.52H43c.51,0,1.83-.77,1.83-1.37V37.83h4.5a15.39,15.39,0,0,1,2.93.09v3.41c0,.18.14.19.28.19,1,0,2.35-.59,2.35.53V55.5c0,.18.14.19.29.19.56,0,2.06-.31,2.06.18V67.55c0,.17.13.19.28.19h2.15c.52,0,1.84-.77,1.84-1.37V46.05h1.67c.52,0,1.84-.76,1.84-1.36V29.33h.5c.52,0,1.84-.76,1.84-1.37V18.55c.55-.06,1.75-.78,1.75-1.36V10.33c.56-.06,1.76-.78,1.76-1.35V1.5c1.61-.05,3.62,0,3.62.41v8c0,.18.14.19.29.19,2,0,1.76-.16,1.76,1.85v4.76c0,.18.14.19.28.19,1.06,0,1.48-.44,1.48.6V29.71c0,.18.13.19.28.19,1.51,0,2.06-.59,2.06.89V46.71c0,.18.13.19.28.19,2.6,0,2.35-.4,2.35,2.1V71.09c0,.18.14.19.28.19h1.28c.51,0,1.83-.77,1.83-1.37v-4.3H96.83c.47,0,.18,1.91.18,2.64,0,.18.13.19.28.19h.4c.52,0,1.83-.76,1.83-1.36V48.6h.8c.52,0,1.84-.76,1.84-1.36V41.52H108c.56,0,3.34,0,3.34,0v5.4c0,2.1,1.83,2.68,1.83,4.88v9.68c0,.18.14.19.28.19h0c.52,0,1.84-.76,1.84-1.36V58h9.33c-.28,0-.15,3.33-.15,3.78,0,.17.14.18.29.18H129c1.05,0,.5,2.49.5,3.5,0,.18.13.19.28.19h2.16c.51,0,1.83-.77,1.83-1.37V60.51h2c.51,0,1.83-.77,1.83-1.37V49.59h21.31c1.34,0,1-.35,1,.71v10c0,.18.14.19.28.19h4c.51,0,1.83-.77,1.83-1.37V49.59h15.42c1,0,.41,2.94.41,4.21,0,.18.13.19.28.19.67,0,4.69.11,4.69-.12V70c0,.18.14.19.28.19H191c.52,0,1.84-.76,1.84-1.36V56.26h24.75c-.12,0-.07,6-.07,7.18,0,.17.14.19.28.19,2.95,0,3.23-.71,3.23,2.23v6.93c0,.18.14.19.28.19,1.71,0,2.06-.48,2.06,1.28v4.2c0,.17.14.19.28.19h7.13c.52,0,1.84-.77,1.84-1.37V61.64h7.72c1.28,0,3.22-.53,3.22.53v5c0,.18.14.19.28.19h3.56c.52,0,1.83-.77,1.83-1.37v-4.3h9.28c.56,0,.26,8.37.26,10,0,.18.14.19.28.19,2.16,0,2.06-.29,2.06,1.86v4.76c0,.17.14.19.28.19h5c.51,0,1.83-.77,1.83-1.37V67h8.17c.51,0,1.83-.77,1.83-1.37V64.19h.8c.52,0,1.83-.76,1.83-1.36v-2h3.73a2.65,2.65,0,0,0,1.25-.57h8.43c-.25,0-.13,2.59-.13,2.93,0,.18.14.19.28.19,2.83,0,2.65-.35,2.65,2.46v6.42c0,.18.14.19.28.19h6.14c.52,0,1.83-.76,1.83-1.37V59.94H313c.52,0,1.84-.76,1.84-1.36V58h.73c.52,0,1.84-.76,1.84-1.36,0-4.17-.59-7.76,1.46-11.41.72-1.27,2-2.76,2-4.28V34.89c1.57-.12,2.45-.1,2.45,2s-.52,4.32.78,6.1,3.32,3.66,3.32,6.07v8.72c0,.18.14.19.28.19.42,0,.2,6.64.2,7.73,0,.18.14.19.28.19h1.39c.51,0,1.83-.76,1.83-1.36V25.65H347a1.37,1.37,0,0,0,.46-.06.27.27,0,0,0-.05.19V61.45c0,.18.14.19.28.19h6.15a21.94,21.94,0,0,1,2.93.06V66c0,.18.14.19.28.19h6.87c.52,0,1.84-.77,1.84-1.37V54.19h.53c.52,0,1.84-.76,1.84-1.36V43.47h2.38c.52,0,1.83-.77,1.83-1.37V34.78h4.94s0,5.33,0,5.94c0,.18.14.19.28.19H381c1.4,0,.77,1.73.77,2.88,0,.18.14.19.28.19,2.94,0,3.67-.73,3.67,2.36,0,.18.14.19.29.19a22.08,22.08,0,0,0,3.67-.1V59.88c0,.17.14.19.28.19.95,0,2.88-.6,2.88.58v4.2c0,.18.14.19.28.19h.31c.52,0,1.84-.76,1.84-1.36V61.36h2.39c.51,0,1.83-.77,1.83-1.37V51.63c.52-.27,1.06-.72,1.06-1.1V47.77c.6-.17,1.58-.81,1.58-1.33V37.22c1.48-.11,3.1-.1,3.1.94v8.69c0,.18.14.19.28.19,2.77,0,2.62-.17,2.62,2.59,0,.69,1.8-.65,1.95-.85l.95-1.23.66.63c.19.19.51.11.84-.07l.42.41c.44.43,2-.66,2.07-1.22h7c2.11,0,1.7-.24,1.7,1.88V54c0,.18.14.19.28.19.61,0,4.73,0,4.73,0V60c0,.17.13.18.28.18h4.48c.51,0,1.83-.76,1.83-1.36V37.59h5.34c.52,0,1.83-.76,1.83-1.36V34.78h1.61c1.89,0,1.5.29,1.5,2.11,0,.18.13.19.28.19,1.68,0,3.14-.77,3.14,1.05v6.68c0,.18.14.19.28.19,2.47,0,1.57,1.58,1.57,3.93v6c0,.18.13.19.28.19h12.21c1.09,0,.51,1.81.51,3.26v6.35c0,.18.14.19.28.19,1,0,3.85-.51,3.85.5,0,.18.14.19.28.19,2.36,0,3.78-1,3.78,1.48v7.85c0,.18.14.19.28.19h3.92c.51,0,1.83-.76,1.83-1.36V59.37h3.3c2.06,0,4.42-.93,4.42,1V74.94c0,.18.14.19.28.19.73,0,.36,1.3.36,1.86,0,.18.14.19.28.19h2.43c.51,0,1.83-.77,1.83-1.37v-1.7h6.71c.75,0,.35,6.08.35,7.47,0,.18.13.19.28.19h8.49c.51,0,1.83-.76,1.83-1.36v-12c.59-.24,1.32-.78,1.32-1.23V57.39h11.25c2,0,1.16.87,1.16,3.08v7.07c0,.18.13.19.28.19,1.66,0,2-.47,2,1.24v5.21c0,.18.13.19.28.19h7c3.15,0,3-.5,3,2.62,0,.18.13.19.28.19h4.22c1.06,0,.51,2.38.51,3.38,0,.18.13.19.28.19,3,0,2.09,1.21,2.09,3.94,0,.18.13.19.28.19h1.64c.51,0,1.83-.76,1.83-1.36V82.28h1.59c.52,0,1.83-.76,1.83-1.36V73.6h4.76c.52,0,1.83-.76,1.83-1.36V40.66h7.13c1.4,0,9.42-.06,9.42,0V62.43c0,.18.14.19.28.19,1.94,0,3.15-.85,3.15,1.06v22.5c0,.18.13.19.28.19h3.21c.52,0,1.84-.76,1.84-1.37V43.21h.8c.51,0,1.83-.76,1.83-1.36V17.16h3.44c.52,0,1.83-.76,1.83-1.36v-4h1.94c.74,0,.37,3.64.37,4.41,0,.18.14.19.28.19h.59c.51,0,1.83-.77,1.83-1.37v-.42h3.87s0,3.74,0,4.29V32.81c0,.18.13.19.28.19.93,0,4.46-.08,4.46,0V85.92c0,.18.14.19.28.19h2.91c.52,0,1.84-.76,1.84-1.36V64.92c0-1.58-.18-2.67.38-3.22,2.12-2,1.07-6.14,1.07-8.87V40.66h1c.52,0,1.83-.77,1.83-1.37V37.08H616c3,0,2.23.51,2.23,3.39,0,.18.13.19.28.19h1.37c.51,0,1.83-.77,1.83-1.37v-4c2.47,0,6.27-.06,6.27.18V67.28c0,.18.14.19.28.19,3.35,0,3.15-.47,3.15,2.86V79c0,.18.13.19.28.19h.05c.52,0,1.83-.77,1.83-1.37V76.41h2.94c2.78,0,2.27.14,2.27,2.87,0,.18.14.19.28.19,1.68,0,2.89-.72,2.89,1.12v5.85c0,.18.14.19.28.19h12c-.29,0-.24,6.44-.2,9.85l2.13,0V85.26c0-.18-.14-.19-.28-.19h-10c-1.82,0-1.8.49-1.8-1.12V78.11c0-.18-.13-.19-.28-.19-3,0-2.88.16-2.88-2.87,0-.18-.14-.19-.28-.19h-7.06c.06-3.11,0-7.8,0-8.75,0-.18-.14-.19-.28-.19-3,0-3.15.78-3.15-2.11V33.93c0-.18-.13-.19-.28-.19h-8.38c-.52,0-1.83.76-1.83,1.36v.43H611.9c-.51,0-1.83.76-1.83,1.36V39.1h-1c-.51,0-1.83.77-1.83,1.37V60.26c0,1.78-.13,1-1.29,2.47-.46.6-.16,2-.16,2.71V84.76c-.49,0-.79-.14-.79-.86V31.63c0-.18-.14-.19-.29-.19-.67,0-4.46-.12-4.46.12V13.24c0-.18-.14-.19-.28-.19h-6a1.28,1.28,0,0,0-.4.1c0-1.07.1-2.32.1-2.72,0-.18-.14-.19-.28-.19H589c-.51,0-1.83.77-1.83,1.37v4H583.7c-.52,0-1.83.76-1.83,1.36V41.66h-.81c-.51,0-1.83.76-1.83,1.36V84.93c-.88.06-1.1-.11-1.1-1.68v-22c0-.17-.14-.19-.28-.19-1.48,0-3.15.75-3.15-.7V39.29c0-.18-.13-.19-.28-.19H555.76c-.51,0-1.83.77-1.83,1.37V72.05h-4.76c-.51,0-1.83.76-1.83,1.36v7.32h-1.59a2.82,2.82,0,0,0-1.52.8c0-.65.16-1.41.16-2.14,0-.18-.13-.19-.28-.19-2.79,0-2.09-.77-2.09-3.39,0-.18-.14-.19-.28-.19h-4.23c-1,0-.5-1.68-.5-2.62,0-.18-.13-.19-.28-.19h-8.67c-1.63,0-1.33.32-1.33-1.24V66.36c0-.18-.13-.19-.28-.19-2.69,0-2-.42-2-3.08V56c0-.17-.14-.19-.28-.19H509.64c-.51,0-1.83.77-1.83,1.37v9.87c-.59.24-1.33.79-1.33,1.23V80.22H500c.27,0,.13-6.56.13-7.47,0-.18-.13-.19-.28-.19h-9.17c-.52,0-1.83.76-1.83,1.36v1.57c-.3-.2-.31-.65-.31-1.72,0-.18-.14-.19-.28-.19-.74,0-.36-13.5-.36-15.57,0-.18-.14-.19-.28-.19h-9.84c-.52,0-1.83.76-1.83,1.36V73.66c-1.49.09-1.8,0-1.8-2.36V64.24c0-.18-.14-.19-.28-.19-1,0-3.79.51-3.79-.5,0-.18-.13-.19-.28-.19-2.41,0-3.84,1-3.84-1.53V53.76c0-.18-.14-.19-.28-.19H453.44c-1.09,0-.51-2.43-.51-3.93v-6c0-.17-.13-.18-.28-.18-2.2,0-1.56-.67-1.56-2.79V35.72c0-.18-.14-.19-.28-.19-2.63,0-3.15.62-3.15-2.11,0-.18-.14-.19-.28-.19h-5.22c-.51,0-1.83.76-1.83,1.36V36H435c-.52,0-1.83.76-1.83,1.36V58.79c-1.16.06-2.37,0-2.37-.56v-5.4c0-.18-.13-.19-.28-.19-1.1,0-4.73.48-4.73-.41v-6.3c0-.18-.13-.19-.28-.19H414.75a2.59,2.59,0,0,0-1.12.46l-.33.15-.89-.86c-.46-.45-1.67.63-1.92,1l-.26.33v-1.1c0-.18-.13-.19-.28-.19-2.75,0-2.62.4-2.62-2.33V36c0-.18-.13-.19-.28-.19h-5.21c-.52,0-1.84.77-1.84,1.37V46.3c-.6.16-1.58.8-1.58,1.32v3c-.52.28-1.05.72-1.05,1.1v8.1h-2.43c0-.55,0-1,0-1.11s-.14-.19-.29-.19c-.63,0-2.87.26-2.87-.15V45.17c0-.18-.14-.19-.28-.19-2.94,0-3.68.73-3.68-2.37,0-.18-.14-.19-.28-.19-3.37,0-3.67.57-3.67-2.87,0-.18-.14-.19-.28-.19-.29,0-4.2,0-4.2,0v-6c0-.18-.14-.19-.28-.19h-7.07c-.51,0-1.83.76-1.83,1.36v7.32h-2.38c-.52,0-1.84.77-1.84,1.37v9.36h-.54c-.51,0-1.83.76-1.83,1.36V64.62h-3.78c-1.87,0-1-2.56-1-4.34,0-.18-.14-.19-.29-.19-.93,0-9.07.13-9.07-.14V24.28c0-.18-.14-.19-.28-.19h-18c-.52,0-1.84.77-1.84,1.37V46c-1-1.29-3.84-4-3.84-5.42V33.63c0-.17-.14-.18-.28-.18h-4.57c-.52,0-1.84.76-1.84,1.36V41.5c0,2-1.42,3.7-2.4,5.44-1.64,2.91-1.25,6.23-1.13,9.53h-.72c-.51,0-1.83.76-1.83,1.36v.56h-7.7c-.51,0-1.83.76-1.83,1.36V70.92c-1.78.06-4,.09-4-.38V62c0-.18-.13-.19-.28-.19-2.95,0-2.64,0-2.64-2.93,0-.18-.14-.19-.28-.19h-9.84a2.65,2.65,0,0,0-1.25.57H280.6c-.51,0-1.83.76-1.83,1.36v2H278c-.52,0-1.83.76-1.83,1.36v1.47H268c-.52,0-1.83.77-1.83,1.37V77.19c-1.38.06-2.92.06-2.92-.5V70.48c0-.18-.13-.19-.28-.19-2.72,0-2.05-.36-2.05-3v-7c0-.18-.14-.19-.29-.19H249c-.51,0-1.83.76-1.83,1.36V65.9c-.77,0-1.45-.08-1.45-.67v-5c0-.18-.13-.19-.28-.19h-13c-.52,0-1.84.76-1.84,1.36V77.09h-4.67c-.75,0-.34-4.33-.34-5.48,0-.18-.14-.19-.28-.19-2.74,0-2.06-.4-2.06-3.1V62.26c0-.18-.14-.19-.28-.19-1.6,0-3.23.77-3.23-1V54.89c0-.18-.14-.19-.28-.19h-26.8c-.52,0-1.84.77-1.84,1.37V68.64c-.91,0-1.79,0-1.79-.16V52.62c0-.18-.14-.19-.29-.19h-4.76c.13,0,.07-3.76.07-4.2,0-.18-.14-.19-.28-.19H165.73c-.52,0-1.84.76-1.84,1.37V59c-1.83,0-1.88-.12-1.88-3V48.23c0-.18-.13-.19-.28-.19H137.27c-.52,0-1.83.76-1.83,1.37V59h-2c-.52,0-1.84.77-1.84,1.37v3.16c-.3-.55,0-1.49,0-2.92,0-.18-.14-.19-.28-.19h-4.19c-1.07,0-.5-2.75-.5-3.78,0-.18-.14-.19-.28-.19h-11c0-2.7-.06-6-.06-6.79,0-1.57-1.82-1.86-1.82-3.25V40.15c0-.18-.14-.19-.29-.19H101.88c-.52,0-1.84.77-1.84,1.37v5.72h-.8c-.51,0-1.83.76-1.83,1.36V64.05h-11a2.33,2.33,0,0,0-1,.39V45.54c0-.18-.13-.19-.28-.19-1.55,0-2.35.66-2.35-.9V28.53c0-.18-.14-.19-.28-.19-.56,0-2.06.31-2.06-.17V15.49c0-.17-.14-.19-.28-.19-1.82,0-1.47-.06-1.47-1.85V8.69c0-.18-.14-.19-.28-.19C76,8.5,76.6,8.21,76.6,5.89V.19c0-.18-.14-.19-.28-.19H70.58c-.52,0-1.84.76-1.84,1.37V8.8c-.56.06-1.75.78-1.75,1.35V17c-.56.06-1.76.78-1.76,1.35v9.41h-.5c-.52,0-1.84.76-1.84,1.36V44.5H61.22c-.52,0-1.84.76-1.84,1.36V66.1a.18.18,0,0,1,0-.1V54.32c0-.18-.14-.19-.28-.19-1,0-2.06.54-2.06-.53V40.15c0-.18-.14-.19-.28-.19-3,0-2.35-.65-2.35-3.49,0-.18-.14-.19-.28-.19H44.54c-.52,0-1.83.76-1.83,1.36V40h-.8c-.52,0-1.84.77-1.84,1.37V56.12h-4c-.52,0-1.83.76-1.83,1.36v6c-.33-.14-.34-.55-.34-1.67V56.31c0-.18-.13-.19-.28-.19h-13c-.52,0-1.84.76-1.84,1.36v5.16H4.47c-.52,0-1.84.76-1.84,1.36v6.29h-.8c-.51,0-1.83.76-1.83,1.36V95.37C.72,95.1,1.44,94.85,2.16,94.61Z"/></g></g></svg>