<svg xmlns="http://www.w3.org/2000/svg" viewBox="0 0 654.92 124.65"><defs><style>.cls-1{fill:#1D1D35;}</style></defs><g id="Layer_2" data-name="Layer 2"><g id="object"><path class="cls-1" d="M1.8,120.07q0-8.07.05-16.15l0-8.35c0,.42,6.89.21,8.46.21.19,0,.31-.22.31-.38V86.83c0-1.12-.47-.61.45-.61H22.63v1.09c0,.73.7,1.74,1.49,1.74h5.3v5.64c0,.73.7,1.74,1.49,1.74h4.32c.19,0,.31-.22.31-.38v-22c0-.45-.16-.11,1.17-.11H53.92c.2,0,.31-.22.31-.38V59.11c0-1.75-.37-1.29,1.1-1.29.2,0,.31-.23.31-.39,0-1.26-.41-1.73.91-1.73.19,0,.3-.23.3-.39V50.68c0-1.16-.21-3.28.18-3.28.19,0,.3-.22.3-.39a21.65,21.65,0,0,1,.6-4.22c1.11-1.06-.4-4,1-4,.19,0,.3-.22.3-.39,0-1,3.59-10.3,2.59-10.3.2,0,.31-.22.31-.38.06-2.35.11-4.69.17-7L62.37,17c0-.14.65-.13,1.37-.1,0,2,0,3.95,0,5.92s-.43,4.13.4,5.82c.38.76.08,1.52.49,2.26.12.21.21.36.29.48a2.31,2.31,0,0,0,0,.43,2.45,2.45,0,0,0,.33,1.39v1.63A2.07,2.07,0,0,0,66,36.31a4.45,4.45,0,0,0,.65,3.28c0,.11,0,.24,0,.41a8.32,8.32,0,0,0,0,1.41c.31,1.68.31,0,.31,2.3a2.11,2.11,0,0,0,.62,1.7l1.37,1.27.13.1c0,2.44-.75,6,.09,8.29a4.4,4.4,0,0,0,1.28,1.55,6.28,6.28,0,0,1,.15,1.26v1.85a2.09,2.09,0,0,0,.75,1.43v20c0,.44,1,2.35,1.65,1.68,1-1.12,1.87-1.65,1.87-3.12,0-2.9-.68-3.13,2.19-3.13.19,0,.3-.23.3-.39V67.86c0-3.52-1-3.3,2.2-3.3H97.21v14.1A2,2,0,0,0,98,80.13v.19c0,.73.7,1.74,1.49,1.74h1c0,1,.11,2.09.11,3.13,0,.71.7,1.78,1.48,1.74l1.1-.05c.19,0,.3-.21.3-.38V53.29l.16,0h7.61V75c0,.73.7,1.74,1.49,1.74h1.78c.19,0,.31-.23.31-.39V48.8c0,.37,2.34.2,3.42.2h3.22V60.7c0,.73.7,1.74,1.49,1.74h4.47v.26c0,.72.7,1.74,1.49,1.74h.77V86.77A1.93,1.93,0,0,0,131,88.5l3.63.72a.39.39,0,0,0,.5-.38V62.24c0,.39,5.87.2,7.31.2.2,0,.31-.22.31-.39V37.67c0-1-.18-.39.44-.39.19,0,.31-.22.31-.38V32.29c0-1.72-.7-4.19.81-4.35a.38.38,0,0,0,.31-.39c0-1.87-.71-2.94,1.18-3.09a.38.38,0,0,0,.31-.39c0-1.55-.38-1.63,1.19-1.63.19,0,.3-.23.3-.39,0-1.64-.08-1.51,1.56-1.51.19,0,.31-.23.31-.39,0-3.78-1.6-11.06,2.36-13.13a.43.43,0,0,0,.15-.33V2.51c0-.55.9-.56,1.87-.49-.13,1.49-.27,3.2.33,4.27.93,1.69,1.73,2.83,1.72,4.84,0,2.32,0,4.63,0,6.95A2,2,0,0,0,157,19.76a1.47,1.47,0,0,0,.86.68v.5c0,.73.7,1.74,1.48,1.74h0a1.85,1.85,0,0,0,1.35,1.52v2.2a1.88,1.88,0,0,0,1.36,1.72v7.55a1.88,1.88,0,0,0,1.37,1.72V66c0,.73.7,1.74,1.49,1.74h5.43c.19,0,.3-.22.3-.38,0-3.41-1.12-4.15,2.16-4.15h6.66v7.45c0,.73.71,1.74,1.49,1.74h1.18c-.06,3.23-.11,6.46-.17,9.68,0,.73.71,1.74,1.49,1.74h3.53c.19,0,.3-.22.3-.38V78.94c0-1.6-.59-3.19.72-3.19.19,0,.3-.23.3-.39,0-4-.5-3.39,3.49-3.39h7.08V84.64c0,.5,1.3,2.49,1.75,1.54.31-.66.61-1.33.92-2,1.22,2.08,2.23,3.88,2.23,5.87,0,.53,1.21,2.47,1.75,1.54l1.56-2.68,1.24-2.12a1.09,1.09,0,0,0,.12-.26c.28.08.61.07.61-.33v-7c0-1.42-.39-1.33.48-1.33h4.26c.2,0,.31-.23.31-.39s2.79-.16,4.69-.13c.12.69.76,1.51,1.47,1.51h3.81c.19,0,.3-.22.3-.38,0-1.6-.44-1.61,1.15-1.61h2.65v7.81c0,.73.7,1.74,1.49,1.74h.45a.34.34,0,0,0,.26-.2c.46-1.62.22-2.9,2.06-2.85.19,0,.3-.23.3-.39V78.86c0-2.38-.69-2.78,1.53-2.78.19,0,.31-.23.31-.39,0-2-.8-4.79.73-4.79h7.73c.19,0,.3-.23.3-.39,0-1.39,2.3-.74,3.85-.74h6.06c.2,0,.31-.22.31-.38V64.47c0-2.24-.56-1.72,1.67-1.72h10.32v3.72c0,.73.7,1.74,1.49,1.74h10.38v10c0,.73.7,1.74,1.48,1.74h4.6c.2,0,.31-.22.31-.38V61.92c0-2,.36-1.13,2.55-1.13.2,0,.31-.22.31-.38v-7.8c0-.41,1.6-.15,2.82-.15h2.63v1.91c0,.73.7,1.74,1.49,1.74h11.05c.19,0,.31-.22.31-.39V41.28a.22.22,0,0,0,.13,0c.32,0,.31-.42.29-.62-.24-2.83,3.24-2.42,5.28-2.42.19,0,.3-.23.31-.39q.19-7.86.41-15.72l.24-9.18c.06-2.5-.1-2.42,1.47-2.29q.31,12.93.64,25.86c0,.74.68,1.73,1.49,1.74l2.53.05c.66,0,.84,0,.55,0a5.27,5.27,0,0,1,.84.78V58.27c0,.73.7,1.74,1.48,1.74h2.81c.2,0,.31-.22.31-.38l0-11c0-2.85-.83-7.08.81-8.71l5-5,2.07-2.06a2,2,0,0,0,.23-.3L340,40.32c.25.23,1.18.82,1.18,0v-5.2a1.62,1.62,0,0,0,0-.38h.07l2.37,0L353,35v21c0,.73.7,1.74,1.49,1.74h19.42V80.53c0,.72.7,1.74,1.49,1.74h5.06v4.44c0,.72.7,1.74,1.48,1.74h3c.19,0,.31-.23.31-.39V63c0-3.15-.23-2.25,3-2.25.19,0,.31-.22.31-.38,0-3.27-.71-3.52,2.55-3.52.19,0,.31-.22.31-.39V52.32c0,.29,1.91.14,2.66.14h8.1v3.08c0,.73.7,1.74,1.49,1.74h2.6v15c0,.73.7,1.74,1.49,1.74h12.41V91.46c0,.73.7,1.74,1.48,1.74h3c.19,0,.31-.23.31-.39V85.94c0-.53-.36-.16.6-.16h10.13c.19,0,.31-.22.31-.39V64.79c0-1.23,2.4-.48,4.18-.48.2,0,.31-.23.31-.39V59c0-2.46.07-1.73,2.56-1.73.19,0,.3-.22.3-.39V52.28c0,.37,2.33.18,3.16.18h8.42V57.1c0,.73.7,1.74,1.49,1.74h1.38V63c0,.73.7,1.74,1.48,1.74H461V84.43c0,.73.7,1.74,1.49,1.74h11.15c.2,0,.31-.22.31-.39V77.7c0-3.64-.25-2.85,3.37-2.85.2,0,.31-.23.31-.39V62c0-1.05.85-.41,2.15-.41.19,0,.3-.23.3-.39v-4.3c0-2.13-.67-2,1.18-2H490v4.89c0,.73.7,1.75,1.48,1.75h1.79V74.67c0,.73.7,1.74,1.49,1.74h1.37v15c0,.73.7,1.74,1.49,1.74h9.11c.19,0,.3-.23.3-.39V74.53c0,.46,2.47.42,4.22.36V84c0,.73.7,1.74,1.49,1.74h3.39c.19,0,.3-.22.3-.39,0-1,.23-4.68-.23-4.68h14.68v19.34c0,.72.7,1.74,1.48,1.74h3.28c.19,0,.31-.23.31-.39V97.06c0-1.81.4-1.13,2.25-1.13.19,0,.31-.22.31-.39,0-.87.12-4.68-.13-4.68h4.67v5.28c0,.73.7,1.74,1.49,1.74H548c.2,0,.31-.22.31-.38V80.61a9,9,0,0,0,1.21.1h1.78v8c0,.73.7,1.74,1.49,1.74h1.75c.2,0,.31-.22.31-.38a14.2,14.2,0,0,1,0-2.74h12.38v3.73c0,.73.7,1.74,1.49,1.74h6.68v4.5c0,.73.7,1.74,1.49,1.74h5.46V104c0,.73.7,1.74,1.49,1.74h2.16c.19,0,.31-.22.31-.39v-5.11c0-.73,1-.36,2.51-.36h10.26c.19,0,.31-.22.31-.38V92.58c0,.33,2.76.3,4.63.26v9.55c0,.73.7,1.74,1.48,1.74h3c.19,0,.31-.23.31-.39V90.4a2.17,2.17,0,0,0,0-.36.32.32,0,0,0,.16,0h9.4v5.68c0,.73.7,1.74,1.49,1.74h11.19v3c0,.72.7,1.74,1.48,1.74h7.92v5.28c0,.73.7,1.74,1.49,1.74h4.61c.19,0,.3-.22.3-.38v-3.13h6.27v16.59c0,1.49.8,1.08-.58,1.08h-3.37q2.88.61,5.74,1.28V105.3c0-.72-.7-1.74-1.48-1.74h-8.07s-.06,0-.1,0a.11.11,0,0,0-.08,0s0,0,0,0a.39.39,0,0,0-.08.28,29.22,29.22,0,0,0,0,3.13h-2.87v-5.29c0-.73-.7-1.74-1.48-1.74h-7.92V97.11c0-.73-.7-1.74-1.49-1.74H620.18V89.69c0-.73-.7-1.74-1.49-1.74H607.36c-.19,0-.31.22-.31.38v13.34c0,.55-.49.55-1.18.47V92.42c0-.73-.7-1.74-1.49-1.74H598c-.19,0-.31.23-.31.39V96c0,2.26.53,1.73-1.74,1.73h-11c-.19,0-.31.22-.31.38v4.34c0,.95,0,1.19-.36,1.22v-5c0-.73-.7-1.74-1.49-1.74h-5.46V92.42c0-.73-.7-1.74-1.49-1.74h-6.69V87c0-.72-.7-1.74-1.49-1.74H553.4a.31.31,0,0,0-.26.21v-5.1c0-.73-.7-1.74-1.49-1.74h-4.79c-.19,0-.31.22-.31.38V95.51c0,.47-.76.43-1.67.35V90.47c0-.73-.7-1.74-1.49-1.74h-6.34c-.19,0-.31.22-.31.39v3.46c0,1.89-.35,1.22-2.25,1.22-.19,0-.31.23-.31.39v4.34c0,1.38-.48,1.37-1.48,1.25V80.32c0-.73-.7-1.74-1.49-1.74H515c-.2,0-.31.22-.31.38v4.29c0,.56-.74.58-1.59.51v-9.3c0-.73-.7-1.74-1.49-1.74h-6c-.19,0-.3.23-.3.39V90.87c0,.72.33.2-.77.2H498V76c0-.73-.7-1.74-1.48-1.74h-1.38V61.19c0-.73-.7-1.74-1.49-1.74h-1.78v-4.9c0-.73-.7-1.74-1.49-1.74H478.59c-.19,0-.3.23-.3.39v4.3c0,2.43.24,2-2.15,2-.19,0-.3.22-.3.38V72.74c0,.08-2.37,0-3.38,0-.19,0-.3.23-.3.39V84.32c0-.46-6.25-.35-9.36-.3V64.31c0-.73-.7-1.74-1.49-1.74h-1.78V58.46c0-.73-.7-1.74-1.49-1.74h-1.37V52.08c0-.73-.7-1.74-1.49-1.74H441.8c-.19,0-.3.22-.3.38v4.07c0,.84-1.46.36-2.56.36-.19,0-.3.23-.3.39v5.75c0,1.23.36.89-.59.89h-3.6c-.2,0-.31.23-.31.39v21c0,.51.05.11-1.24.11h-9.49c-.19,0-.31.23-.31.39v5.49c0,1.73-.14,1.75-1.18,1.64V73.68c0-.73-.7-1.74-1.49-1.74H408v-15c0-.72-.7-1.74-1.48-1.74h-2.6V52.08c0-.73-.7-1.74-1.49-1.74H389.89c-.19,0-.31.22-.31.38v3.55c0,1-1.39.49-2.55.49-.19,0-.31.23-.31.39,0,3.51.57,3.52-3,3.52-.19,0-.31.22-.31.38v25c0,2.4.21,2.4-1.18,2.3v-4.5c0-.73-.7-1.74-1.49-1.74h-5V57.29c0-.73-.7-1.75-1.49-1.75H354.82v-21a1.83,1.83,0,0,0-1.49-1.74l-13.68-.17c-.19,0-.3.23-.3.39V38l-7.61-7.26c-.18-.18-.74-.67-1-.38-3.12,3.1-8.76,6.39-8.75,11L322,53c0,1.55,0,3.11,0,4.66,0,.37-.43.38-1,.32V41.5c0-3.86-2.21-5-5.45-5.25q-.32-12.94-.64-25.87c0-.73-.69-1.74-1.49-1.75h-3.15c-.2,0-.3.23-.31.39q-.24,9.29-.49,18.58c-.07,2.85-.14,5.69-.22,8.54,0,.3-1.28,0-2.36,0-1.37,0-2.06.74-3.21,1.52-.18.13-.14.38-.13.56.08.83.35,1,0,1-.19,0-.31.23-.31.39v13.6c0,1.19.23.8-.11.8H294v-1.9c0-.73-.7-1.74-1.49-1.74h-7.24c-.19,0-.3.22-.3.38v5.59c0,2.94.33,2.36-2.56,2.36-.19,0-.3.22-.3.38V77.61c0,.4-1.46.33-2.81.25v-10c0-.73-.7-1.75-1.49-1.75H267.4V62.36c0-.73-.7-1.74-1.49-1.74H252.13c-.19,0-.3.22-.3.39v6.41c0,.61.35.23-.64.23h-9.28c-.19,0-.3.22-.3.38,0,1.35-1.67.74-3.15.74h-5.31c-.19,0-.31.22-.31.39V72.7c0,1.69.11,1.25-1.53,1.25-.19,0-.3.22-.3.39V78.5c0,2,.65,2.74-1,2.74V76.52c0-.73-.7-1.74-1.49-1.74H223c-.2,0-.31.23-.31.39,0,1.84-.73,1.82-2,1.7-.08-.71-.73-1.59-1.47-1.59h-6.46c-.19,0-.3.22-.3.39s-3.73.11-4.75.11c-.19,0-.3.22-.3.39v7.66c0,.24,0,.38,0,.5a.34.34,0,0,0-.35.19c-.67,1.14-1.33,2.29-2,3.44a42.34,42.34,0,0,0-3.08-5.77c-.12-.22-.75-1-1.19-1V71.58c0-.73-.7-1.74-1.49-1.74H186.88c-.19,0-.3.23-.3.39,0,1.29.63,3.39-.71,3.39-.2,0-.31.22-.31.38v6.28c0,1.8-.4,1.7-1.71,1.54.06-3.26.12-6.53.17-9.79a1.81,1.81,0,0,0-1.48-1.74h-1.21V62.85c0-.73-.7-1.74-1.49-1.74H169.22c-.19,0-.3.22-.3.38,0,.76-.12,4.15.12,4.15h-3.75V37a1.88,1.88,0,0,0-1.37-1.72V27.75A1.88,1.88,0,0,0,162.55,26v-2.2a1.87,1.87,0,0,0-1.39-1.72c-.1-.7-.74-1.56-1.47-1.56h0v-.73c0-.62-.72-1.89-1.49-1.74l-.43.08-.05,0c.15-3.2.71-7.17-.35-10-.22-.58-1.64-2.87-1.64-1.47V1.74C155.73,1,155,0,154.24,0h-3.77c-.19,0-.31.22-.31.39V5.13c0,.46-2.51,2.15-2.51,3.74v6.65c0,2.52.72,2.89-1.56,2.89-.19,0-.3.23-.3.39,0,1.44.26,1.51-1.19,1.51-.19,0-.31.23-.31.39,0,1.53.36,1.63-1.18,1.75a.38.38,0,0,0-.31.39c0,1.38.6,2.94-.81,3.09a.38.38,0,0,0-.31.39v4.61c0,1.41.46,4.23-.44,4.23-.19,0-.3.22-.3.38v25c0-.29-1.53-.19-2.56-.19h-4.76c-.19,0-.31.23-.31.39V87.44c0-.53-.9-.72-1.83-.85V64.05c0-.73-.7-1.74-1.49-1.74h-.78v-.26c0-.72-.7-1.74-1.49-1.74h-4.47V48.62c0-.73-.7-1.74-1.48-1.74h-8.44c-.2,0-.31.22-.31.38V52.8c-.07-.71-.73-1.62-1.47-1.62H102c-.19,0-.3.23-.3.39V80.43a1.31,1.31,0,0,0-.94-.49h-1A2.08,2.08,0,0,0,99,78.55V64.17c0-.73-.7-1.74-1.49-1.74H75.86c-.19,0-.3.22-.3.39V74c0,1.06-.89.42-2.19.42a.3.3,0,0,0-.24.16V64.35c0-1.19.36-2.91-.61-3.84l-.15-.12a2.09,2.09,0,0,0,0-.26V57.65a2.31,2.31,0,0,0-.85-1.8,3.45,3.45,0,0,1-.66-.8V48.57a3.89,3.89,0,0,0-.22-1.92,2.94,2.94,0,0,0-.62-.74l-1.16-1.06-.12-.12a5.07,5.07,0,0,0-.23-2.58,1.85,1.85,0,0,1-.1-.2V40.18a1.88,1.88,0,0,0-.58-1.24V36.37a2.1,2.1,0,0,0-.78-1.49,2.82,2.82,0,0,0-1-2.62c1.24.89.69,1.14.69-.36a1.63,1.63,0,0,0-.22-.77l-.3-.5a1.73,1.73,0,0,0,0-.39c0-.38-.65-2.22-.65-1.42,0-1.23,0-2.46,0-3.69,0-2.84,0-5.69,0-8.53,0-.73-.7-1.74-1.49-1.74H60.89c-.19,0-.3.22-.3.39l-.15,6.06-.09,3.52c0,1.12.15,1.17-.17,1.17s-.31.23-.31.39v3.25c0,.95-1.19,1.75-1.19,2.68,0,.72-1.38,4.37-1.79,4.37-.19,0-.31.23-.31.39,0,.86-.64,8.19-1.22,8.19-.19,0-.3.23-.3.39v4.63c0,1.8.67,3.28-.91,3.28-.19,0-.3.22-.3.39,0,1.51.42,1.73-1.11,1.73-.19,0-.3.22-.3.39v15.5a1.93,1.93,0,0,0,0,.26H34.05c-.19,0-.31.22-.31.38V93.83c0,1.08.32.48-.55.48h-2V88.66c0-.73-.7-1.74-1.48-1.74H24.42V85.84c0-.73-.7-1.74-1.49-1.74H9.16c-.19,0-.31.22-.31.38v9.44c0-.53-7.1-.26-8.46-.26-.19,0-.3.22-.3.38L0,119.72ZM553.14,87.79V86.55A3.86,3.86,0,0,1,553.14,87.79ZM71.34,60.87c0-.29,0-.45,0,0Zm-3-19c-.1-.22,0-.18,0,0Z"/></g></g></svg>